<svg xmlns="http://www.w3.org/2000/svg" xmlns:xlink="http://www.w3.org/1999/xlink" viewBox="0,0,256,256" width="20px" height="20px" fill-rule="nonzero"><g fill="#ffffff" fill-rule="nonzero" stroke="none" stroke-width="1" stroke-linecap="butt" stroke-linejoin="miter" stroke-miterlimit="10" stroke-dasharray="" stroke-dashoffset="0" font-family="none" font-weight="none" font-size="none" text-anchor="none" style="mix-blend-mode: normal"><g transform="scale(5.33333,5.33333)"><path d="M24.4375,4.00195c-0.80313,0.03357 -1.43707,0.69421 -1.4375,1.49805v9.75586c-0.02581,0.15912 -0.02581,0.32135 0,0.48047v14.54297c-0.027,-0.02114 -0.05087,-0.04556 -0.07812,-0.06641c-1.83065,-1.39991 -4.2647,-2.21289 -6.92187,-2.21289c-2.65717,0 -5.09123,0.81298 -6.92187,2.21289c-1.83065,1.39991 -3.07812,3.46214 -3.07812,5.78711c0,2.32497 1.24748,4.3872 3.07813,5.78711c1.83065,1.39991 4.2647,2.21289 6.92188,2.21289c2.65717,0 5.09123,-0.81298 6.92188,-2.21289c1.76302,-1.34819 2.97266,-3.31334 3.06055,-5.5332c0.0007,-0.00716 0.00135,-0.01432 0.00195,-0.02148c0.01122,-0.07695 0.01645,-0.15466 0.01563,-0.23242v-18.33594l13.97266,5.24023c0.46069,0.17293 0.97689,0.10893 1.3814,-0.17127c0.40451,-0.2802 0.64589,-0.74096 0.64594,-1.23303v-6.53516c0,-2.70466 -1.68424,-5.13623 -4.2168,-6.08594l-12.75586,-4.7832c-0.18834,-0.07047 -0.38893,-0.10235 -0.58984,-0.09375zM26,7.66406l10.72852,4.02344c1.37145,0.51429 2.27148,1.81201 2.27148,3.27734v4.37109l-13,-4.875zM16,31c2.03725,0 3.85386,0.64307 5.09961,1.5957c1.24574,0.95263 1.90039,2.13942 1.90039,3.4043c0,1.26488 -0.65465,2.45167 -1.90039,3.4043c-1.24574,0.95263 -3.06235,1.5957 -5.09961,1.5957c-2.03725,0 -3.85386,-0.64307 -5.09961,-1.5957c-1.24575,-0.95263 -1.90039,-2.13942 -1.90039,-3.4043c0,-1.26488 0.65465,-2.45167 1.90039,-3.4043c1.24574,-0.95263 3.06235,-1.5957 5.09961,-1.5957z"></path></g></g></svg>